# xmcd
#
# Track frame offsets:
#  150
#  14641
#  32015
#  48057
#  60617
#  74730
#  115397
#  135459
#  150311
#  167022
#  182724
#  205036
#  221838
#
# Disc length: 3177 seconds
#
# Revision: 0
# Processed by: cddbd v1.5.1PL2 Copyright (c) Steve Scherf et al.
# Submitted via: Collectorz.com_Music_Collector 6.11
#
DISCID=b60c670d
DTITLE=Calexico - Fabrik, Hamburg 2006
DYEAR=1900
DGENRE=
TTITLE0=Yours And Mine
TTITLE1=Cruel
TTITLE2=Across The Wire
TTITLE3=Sunken Waltz
TTITLE4=El Picador
TTITLE5=Roka/Guns Of Brixton
TTITLE6=Letter To Bowie Knife
TTITLE7=The Ride, Part 2
TTITLE8=Alone Again Or
TTITLE9=Bisbee Blue
TTITLE10=Black Heart
TTITLE11=Dub Latina
TTITLE12=El Burro Song
EXTD=
EXTT0=
EXTT1=
EXTT2=
EXTT3=
EXTT4=
EXTT5=
EXTT6=
EXTT7=
EXTT8=
EXTT9=
EXTT10=
EXTT11=
EXTT12=
PLAYORDER=
